PathFileType	4	(X/Y/Z)	..\data\2014030\dynamic\2014030_C4_03.trc
DataRate	CameraRate	NumFrames	NumMarkers	Units	OrigDataRate	OrigDataStartFrame	OrigNumFrames
100.000000	100.000000	4	52	mm	100.000000	0	174
Frame#	Time	L_IAS			L_IPS			R_IPS			R_IAS			L_FTC			L_FLE			L_FME			L_FAX			L_TTC			L_FAL			L_TAM			L_FCC			L_FM1			L_FM2			L_FM5			R_FTC			R_FLE			R_FME			R_FAX			R_TTC			R_FAL			R_TAM			R_FCC			R_FM1			R_FM2			R_FM5			CV7			TV10			SXS			SJN			L_SIA			L_SRS			L_SAA			L_SAE			L_HLE			L_HME			L_UOA			L_RSP			L_UHE			L_HM2			L_HM5			R_SIA			R_SRS			R_SAA			R_SAE			R_HLE			R_HME			R_UOA			R_RSP			R_UHE			R_HM2			R_HM5			
		X1	Y1	Z1	X2	Y2	Z2	X3	Y3	Z3	X4	Y4	Z4	X5	Y5	Z5	X6	Y6	Z6	X7	Y7	Z7	X8	Y8	Z8	X9	Y9	Z9	X10	Y10	Z10	X11	Y11	Z11	X12	Y12	Z12	X13	Y13	Z13	X14	Y14	Z14	X15	Y15	Z15	X16	Y16	Z16	X17	Y17	Z17	X18	Y18	Z18	X19	Y19	Z19	X20	Y20	Z20	X21	Y21	Z21	X22	Y22	Z22	X23	Y23	Z23	X24	Y24	Z24	X25	Y25	Z25	X26	Y26	Z26	X27	Y27	Z27	X28	Y28	Z28	X29	Y29	Z29	X30	Y30	Z30	X31	Y31	Z31	X32	Y32	Z32	X33	Y33	Z33	X34	Y34	Z34	X35	Y35	Z35	X36	Y36	Z36	X37	Y37	Z37	X38	Y38	Z38	X39	Y39	Z39	X40	Y40	Z40	X41	Y41	Z41	X42	Y42	Z42	X43	Y43	Z43	X44	Y44	Z44	X45	Y45	Z45	X46	Y46	Z46	X47	Y47	Z47	X48	Y48	Z48	X49	Y49	Z49	X50	Y50	Z50	X51	Y51	Z51	X52	Y52	Z52	

1	0	-53.47201156616212	910.9702148437502	-395.096405029297	-250.4931793212891	960.2390747070315	-311.0318603515626	-241.3508300781251	956.5314941406252	-196.9283294677735	-37.08052825927735	914.2506103515627	-139.7450103759766	-136.0099334716797	848.9607543945315	-443.021942138672	-208.3479156494141	450.9544982910157	-368.2010192871094	-220.7739562988282	461.5515747070314	-249.1119232177735	-234.3723144531251	392.6062622070314	-366.5773315429688	-187.5681610107422	385.8051757812501	-299.3035278320313	-355.8190917968751	77.15227508544923	-340.3921813964844	-354.2185058593751	92.35276031494142	-249.6963653564454	-416.5172729492189	43.24396133422852	-306.4487915039063	-236.9922027587891	14.15564060211182	-236.7227172851563	-219.1460113525391	28.34623527526856	-293.6084289550782	-253.110092163086	12.62263584136963	-353.3056030273438	-118.6002197265625	832.9507446289065	-79.2749481201172	28.598051071167	466.1727294921876	-132.3630981445313	28.69963455200196	465.1954650878907	-257.8895874023438	43.47551345825196	410.4860229492189	-133.1481018066407	99.03948974609378	427.8850097656251	-189.7223358154297	153.8169708251953	85.96311187744142	-155.5815734863282	167.5235748291016	103.4786911010742	-243.667953491211	132.6780700683594	17.67247772216797	-204.1566009521485	300.6771850585938	90.48439788818361	-232.7708892822266	296.1816711425782	101.8395309448242	-177.2158813476563	270.7601318359376	63.25138092041017	-130.0353546142578	-155.6278076171875	1414.682250976563	-256.6793518066407	-233.7603912353516	1186.86376953125	-281.8866577148438	5.736363410949708	1102.36962890625	-271.3085021972657	-29.01653480529786	1322.370971679688	-268.9783020019532	-233.512680053711	1220.213500976563	-377.8991088867188	-196.0533599853516	1351.257690429688	-380.6630554199219	-141.5577392578125	1353.149291992188	-445.2460327148439	-84.98727416992189	1363.026000976563	-456.9859313964845	-66.59712982177736	1051.302734375	-544.8757324218751	-121.0365753173828	1036.520385742188	-492.7605895996095	-98.74661254882815	1014.963134765625	-528.5051269531251	75.44696044921876	862.4958496093752	-461.8553466796876	50.59655380249025	849.7085571289065	-529.8984375000001	130.792709350586	795.9050903320315	-450.5041503906251	72.65441131591798	780.4523925781252	-533.7182617187501	-242.6685791015626	1209.393432617188	-192.6259155273438	-197.2379150390626	1328.33203125	-163.3997344970703	-159.2100677490235	1328.014770507813	-107.2339477539063	-106.7668685913086	1329.81103515625	-81.88523101806642	-203.3283996582032	1024.352294921875	-23.00305366516114	-230.4478607177735	1016.852172851563	-99.23635864257815	-238.5365905761719	1000.013854980469	-54.101863861084	-157.2752990722657	780.8638305664065	-62.11826324462892	-208.6198730468751	787.3812255859377	-0.6832867860794068	-137.1296081542969	695.9053955078126	-55.1097984313965	-209.5549621582032	714.6681518554689	9.05269241333008	
2	0.01	-43.33915328979493	909.8150634765627	-394.8999938964845	-240.0225677490235	959.3616333007815	-309.7231445312501	-230.4080200195313	955.527526855469	-195.7250976562501	-26.02440834045411	912.9483032226565	-139.4167175292969	-126.27587890625	848.2128906250002	-442.4741821289064	-201.0601043701172	450.504119873047	-368.0152282714844	-213.0432281494141	461.2440185546876	-248.8706970214844	-227.9462585449219	392.4756774902345	-366.4053344726563	-181.1732635498047	384.8621520996095	-299.1312255859376	-354.7024536132813	79.11212158203126	-340.7359924316407	-352.9293212890626	94.1311721801758	-249.9581451416016	-416.092742919922	46.10681533813477	-306.7831420898438	-236.8428192138672	14.26613998413086	-236.7855834960938	-218.9742279052735	28.52545547485352	-293.6844177246094	-252.9062805175782	12.75665855407715	-353.3154907226563	-107.3740921020508	831.545349121094	-78.86646270751955	38.02155303955079	464.7471923828126	-132.1946258544922	38.49497222900391	464.0187377929689	-257.7185974121094	53.13000488281251	409.085662841797	-133.0653839111328	108.791732788086	426.771697998047	-189.5243682861328	164.016845703125	84.93104553222658	-155.9025573730469	177.8489837646485	102.5322952270508	-243.9632415771485	142.9392242431641	16.81659507751465	-204.6517486572266	311.0094299316407	89.51226806640626	-232.6248931884766	306.3391113281251	100.773178100586	-177.085189819336	280.7345275878907	62.1847496032715	-130.1443786621094	-145.3720703125	1413.619995117188	-255.3472900390626	-223.2953491210938	1185.78515625	-280.7020263671876	16.14519309997559	1101.328369140625	-270.7699279785157	-18.71696472167969	1321.454345703125	-267.8913269042969	-223.3333740234376	1219.242431640625	-376.6177062988282	-185.9287719726563	1350.344482421875	-379.3341369628907	-131.5229034423828	1352.274780273438	-443.9969177246095	-75.00852203369142	1362.221435546875	-455.8504028320314	-56.54571533203126	1050.601440429688	-544.0566406250001	-110.9588699340821	1035.7236328125	-491.9484863281251	-88.64930725097658	1014.233459472656	-527.7063598632814	85.6371307373047	861.6711425781252	-461.2242126464845	60.81398773193361	848.9849853515627	-529.2717895507814	140.953353881836	795.1685791015627	-449.959442138672	82.8513870239258	779.8037109375002	-533.2322387695314	-232.3667144775391	1208.223266601563	-191.4482116699219	-186.80224609375	1327.11767578125	-162.1749572753907	-148.7796478271485	1326.783935546875	-106.0266189575196	-96.36272430419925	1328.58837890625	-80.7106170654297	-193.1056671142579	1023.171691894531	-22.03172111511231	-220.1598815917969	1015.664245605469	-98.23540496826175	-228.263656616211	998.8931274414065	-53.12502670288087	-147.3608703613282	779.606140136719	-61.0138397216797	-198.7416076660157	786.231628417969	0.3798433840274812	-127.21728515625	694.7268676757814	-53.95363998413087	-199.7149047851563	713.5346069335939	10.1588077545166	
3	0.02	-32.97325134277344	908.7274169921877	-394.591522216797	-229.5132598876954	958.7317504882815	-308.5045776367188	-219.3660583496094	954.7258300781252	-194.5577087402344	-14.90096282958985	911.7907714843752	-138.9154663085938	-116.3158111572266	847.5646972656252	-441.8675842285157	-193.3570709228516	450.1197814941407	-367.8865356445313	-204.865707397461	460.9688720703126	-248.6913604736329	-221.1144714355469	392.4174194335939	-366.2938232421876	-174.3625946044922	383.9170532226563	-299.0432739257813	-353.4197998046876	81.34690856933595	-341.1635437011719	-351.4035644531251	96.1969909667969	-250.3009490966797	-415.5318298339845	49.32604598999025	-307.1541137695313	-236.6651611328126	14.35587978363037	-236.8841400146485	-218.7314453125001	28.70158958435059	-293.7952880859376	-252.6375427246094	12.88066768646241	-353.3283691406251	-96.18054962158206	830.3428955078127	-78.44380950927736	47.95034790039063	463.7013549804689	-132.0943145751953	49.03991699218751	463.322967529297	-257.5030822753907	62.95198440551759	407.9436950683595	-133.039291381836	118.757308959961	425.6464233398439	-189.3005676269532	172.2534942626953	83.63993072509767	-156.3364562988282	186.4432678222657	101.219223022461	-244.3533935546876	150.7860717773438	15.94438076019287	-205.2701263427735	319.5083007812501	87.21340179443361	-232.2693786621094	314.5844421386719	98.45742034912112	-176.7669677734375	288.3583374023438	60.04001235961915	-130.1725463867188	-134.968734741211	1412.709350585938	-253.9582519531251	-212.6641693115235	1184.861938476563	-279.5106506347657	26.73414421081544	1100.448608398438	-270.1332702636719	-8.268532752990724	1320.692626953125	-266.7249450683594	-212.9615478515626	1218.411376953125	-375.3073425292969	-175.620849609375	1349.571899414063	-377.9590759277344	-121.2961196899414	1351.55419921875	-442.6943664550782	-64.84339141845705	1361.557373046875	-454.668426513672	-46.68221664428712	1050.003662109375	-543.1597900390626	-101.0592498779297	1035.111083984375	-491.0405273437501	-78.77065277099611	1013.656372070313	-526.8158569335939	95.46448516845705	860.7770996093752	-460.5768432617189	70.62020111083986	848.2183227539065	-528.6109008789064	150.689682006836	794.317565917969	-449.422821044922	92.55834197998048	779.0853271484377	-532.7210083007814	-221.8931427001954	1207.189086914063	-190.2432250976563	-176.2571105957032	1326.061401367188	-160.8977813720703	-138.2301635742188	1325.686279296875	-104.7587661743164	-85.82938385009767	1327.483276367188	-79.47328186035158	-182.5989074707032	1022.055786132813	-21.00593566894532	-209.6095733642579	1014.531433105469	-97.16577148437503	-217.7023315429688	997.8200683593752	-52.08985137939455	-137.0329742431641	778.4605712890627	-59.86022186279298	-188.4536743164063	785.140075683594	1.482002496719361	-116.8051452636719	693.6686401367189	-52.71635818481447	-189.4257202148438	712.4645996093751	11.30587005615235	
4	0.03	-22.35457992553711	907.745544433594	-394.1417541503907	-218.9352264404297	958.346374511719	-307.3921508789063	-208.2264099121094	954.1484375000002	-193.4381256103516	-3.706866741180421	910.8441162109377	-138.2136535644532	-106.0868835449219	847.0189208984377	-441.1853942871095	-185.2014312744141	449.8211975097657	-367.8131408691407	-196.1938934326172	460.7288818359376	-248.573959350586	-213.8374938964844	392.4514770507814	-366.2411193847657	-167.0774383544922	382.9757385253907	-299.0602111816407	-351.9335937500001	83.89298248291017	-341.6368408203126	-349.5576477050782	98.57322692871097	-250.6958007812501	-414.7720642089845	52.95609664916994	-307.4989013671876	-236.4735870361329	14.40911102294922	-237.0133666992188	-218.4281158447266	28.85105133056641	-293.9324340820313	-252.332260131836	12.98651599884034	-353.3182678222657	-85.04663848876955	829.3964843750002	-77.98774719238283	58.33638381958009	463.0309448242189	-132.0488891601563	60.21990203857423	463.0830688476564	-257.2439880371094	72.93811798095705	407.0632324218751	-133.059555053711	128.8962860107422	424.5337524414064	-189.0868530273438	178.7887573242188	82.14157867431642	-156.8591461181641	193.5025482177735	99.59306335449222	-244.8258209228516	156.4852600097657	15.08686637878418	-205.9516143798829	326.3963012695313	83.71630096435548	-231.7676696777344	321.1707763671876	95.02355194091798	-176.3182220458985	293.9372253417969	56.94840621948244	-130.1459503173828	-124.4150848388672	1411.980224609375	-252.5190124511719	-201.8694152832032	1184.122192382813	-278.3176574707032	37.51216125488282	1099.772583007813	-269.3822326660157	2.329731225967408	1320.1103515625	-265.4804382324219	-202.3943786621094	1217.751098632813	-373.9793395996094	-165.1231842041016	1348.968383789063	-376.5477600097657	-110.8671264648438	1351.01611328125	-441.344940185547	-54.47652435302736	1361.05859375	-453.4398498535157	-36.9952621459961	1049.535522460938	-542.1780395507814	-91.32769775390626	1034.711303710938	-490.0299682617189	-69.10364532470705	1013.260925292969	-525.8286132812501	104.915397644043	859.8289184570315	-459.9163818359376	79.99950408935548	847.4285278320315	-527.9201049804689	159.992172241211	793.3636474609377	-448.907928466797	101.7590789794922	778.3133544921877	-532.1890869140626	-211.2363433837891	1206.318969726563	-189.0134735107422	-165.6003723144532	1325.194946289063	-159.5723419189453	-127.560287475586	1324.754516601563	-103.4344863891602	-75.16487121582033	1326.52734375	-78.17700958251955	-171.7969818115235	1021.034301757813	-19.93367195129395	-198.7827453613282	1013.484741210938	-96.03933715820315	-206.8434600830079	996.8254394531252	-51.00572967529298	-126.2888336181641	777.4500732421877	-58.65868759155275	-177.7572479248047	784.1381835937502	2.621017217636109	-105.9104919433594	692.7509155273439	-51.40375137329103	-178.6925506591797	711.4879150390626	12.49299430847168	
